# xmcd CD database file
#
# Track frame offsets:
#	150
#	11792
#	29400
#	48162
#	64602
#	88345
#	117117
#	139030
#	156510
#	167870
#
# Disc length: 2486 seconds
#
# Revision: 4
# Processed by: cddbd v1.5.2PL0 Copyright (c) Steve Scherf et al.
# Submitted via: CDex 1.70beta3
#
DISCID=8509b40a
DTITLE=the pillows - Please Mr.Lostman
DYEAR=1997
DGENRE=J-Loud
TTITLE0=STALKER
TTITLE1=TRIP DANCER
TTITLE2=Moon is mine
TTITLE3=ICE PICK
TTITLE4=彼女は今日
TTITLE5=ストレンジカメレオン
TTITLE6=Swanky Street
TTITLE7=SUICIDE DIVING
TTITLE8=GIRLS DON'T CRY
TTITLE9=Please Mr.Lostman
EXTD=YEAR: 1997
EXTT0=
EXTT1=
EXTT2=
EXTT3=
EXTT4=
EXTT5=
EXTT6=
EXTT7=
EXTT8=
EXTT9=
PLAYORDER=
